<svg width="301" height="223" viewBox="0 0 301 223" fill="none" xmlns="http://www.w3.org/2000/svg">
<g clip-path="url(#clip0_812_566)">
<path fill-rule="evenodd" clip-rule="evenodd" d="M214.538 220.468C272.697 207.246 274.68 177.827 282.348 170.761C290.016 163.694 282.224 154.783 286.266 145.806C292.722 131.468 299.755 136.502 299.203 119.931C298.651 103.36 292.072 100.132 288.849 85.9578C282.393 57.5592 292.116 41.2111 272.419 30.0625C252.722 18.914 225.869 26.8624 198.916 32.9898C148.89 44.3628 102.323 -21.8306 40.5785 15.241C19.3001 28.0166 20.5306 49.5867 37.4965 72.9284C48.4118 101.783 -9.39542 105.089 2.78378 145.806C29.056 198.173 57.1986 174.895 88.3861 191.069C82.7366 188.351 93.6182 193.782 88.3861 191.069C97.8574 195.627 124.484 187.785 141 191.069C167.633 196.364 173.097 229.889 214.538 220.468Z" fill="#009ffc"/>
<path d="M116.7 160.969C126.335 166.581 136.839 169.963 147.075 170.749C153.433 171.234 159.39 170.346 165.697 169.404C166.906 169.223 168.122 169.042 169.346 168.869C170.502 168.707 171.65 168.552 172.791 168.398C179.905 167.44 186.625 166.536 193.386 163.945C208.686 158.083 221.398 147.358 229.179 133.748C237.083 119.924 233.887 111.204 232.146 108.096C228.367 101.354 220.302 98.3921 214.202 97.0953C211.464 96.513 208.622 96.1103 205.873 95.721C201.277 95.0696 196.525 94.3959 192.024 92.8616C180.929 89.0784 172.476 80.5103 166.352 73.4686C164.332 71.146 162.343 68.7287 160.42 66.3908C155.671 60.6199 150.762 54.6523 145.052 49.7208C133.491 39.7366 118.875 34.4595 104.958 35.2408C89.862 36.0889 76.0524 44.1731 68.9179 56.3379C63.007 66.4172 61.4453 79.8491 64.6332 93.1896C67.2189 104.011 72.6097 114.861 81.5978 127.333C92.6184 142.626 104.1 153.629 116.7 160.969ZM150.774 172.743C149.509 172.743 148.232 172.699 146.933 172.599C136.419 171.792 125.641 168.325 115.766 162.572C102.937 155.098 91.2678 143.927 80.0922 128.417C70.958 115.743 65.472 104.686 62.8279 93.6211C59.53 79.819 61.1659 65.8874 67.3172 55.3989C74.7621 42.7047 89.1451 34.2706 104.854 33.3877C119.251 32.5813 134.344 38.02 146.264 48.3159C152.095 53.3514 157.055 59.3807 161.853 65.2118C163.768 67.5396 165.749 69.9471 167.752 72.2507C173.724 79.117 181.947 87.4647 192.623 91.1045C196.959 92.5828 201.623 93.2439 206.134 93.8833C208.913 94.2772 211.788 94.6845 214.588 95.2798C221.064 96.6569 229.647 99.8406 233.765 107.189C237.771 114.34 236.687 124.355 230.791 134.669C222.797 148.651 209.748 159.663 194.049 165.678C187.087 168.346 180.263 169.264 173.039 170.238C171.901 170.391 170.757 170.545 169.605 170.707C168.386 170.879 167.175 171.06 165.971 171.239C160.826 172.008 155.908 172.743 150.774 172.743" fill="white"/>
<path d="M125.435 99.6439C125.435 99.6439 134.148 96.3065 140.328 99.4833C148.279 103.571 168.892 137.325 168.892 137.325C168.892 137.325 185.868 107.954 187.459 104.912C189.051 101.87 192.397 100.721 194.261 101.163L196.759 96.3399C196.759 96.3399 203.893 103.295 210.627 103.701L208.641 108.386C208.641 108.386 211.491 110.482 208.661 116.322C205.832 122.163 186.035 156.72 180.996 163.113C177.817 167.146 168.361 172.075 158.723 161.148C149.086 150.221 138.653 134.231 138.653 134.231" fill="white"/>
<path d="M205.033 108.618C205.025 108.618 205.016 108.618 205.008 108.617C204.934 108.61 197.533 107.763 194.346 101.91C194.285 101.798 194.327 101.657 194.439 101.596C194.551 101.535 194.693 101.576 194.754 101.689C197.822 107.324 204.985 108.148 205.057 108.156C205.184 108.17 205.277 108.284 205.263 108.411C205.251 108.53 205.15 108.618 205.033 108.618" fill="#373C80"/>
<path d="M141.425 110.213C141.425 110.213 145.284 133.081 145.549 149.704C145.814 166.326 146.224 185.369 146.224 185.369H86.8411C86.8411 185.369 78.684 95.6574 86.2189 95.6574C93.9236 95.6574 105.452 99.3446 105.452 99.3446L125.435 99.6439" fill="white"/>
<path d="M89.178 158.799L86.1084 178.586C86.5524 182.82 86.841 185.369 86.841 185.369H146.223C146.223 185.369 145.923 171.377 145.67 156.911L145.477 155.88L89.178 158.799" fill="#ACACAC"/>
<path d="M84.7727 146.227C99.5046 148.528 108.602 149.947 117.769 150.256C127.108 150.571 136.548 149.708 145.477 147.01C145.261 141.055 144.661 134.539 143.988 128.665C135.502 131.023 126.59 131.776 117.769 131.478C108.502 131.165 99.3102 129.719 84.2934 127.374C84.3611 133.46 84.5393 139.916 84.7727 146.227Z" fill="#D0D0D0"/>
<path d="M146.224 185.601C146.098 185.601 145.994 185.501 145.992 185.374C145.987 185.184 145.58 166.14 145.317 149.708C145.056 133.293 141.235 110.48 141.196 110.251C141.175 110.125 141.26 110.005 141.386 109.984C141.511 109.961 141.632 110.048 141.654 110.174C141.692 110.403 145.519 133.25 145.781 149.7C146.044 166.132 146.451 185.174 146.456 185.365C146.458 185.493 146.357 185.598 146.229 185.601C146.227 185.601 146.225 185.601 146.224 185.601" fill="#B8B8B8"/>
<path d="M90.1311 96.5873C93.5663 98.6974 93.3496 101.217 93.1515 108.769L89.1781 158.799C89.1781 158.799 120.881 160.744 126.645 161.544C132.409 162.343 133.843 165.959 133.843 165.959H142.322C136.989 175.849 142.322 185.042 142.322 185.042C142.322 185.042 107.707 185.042 98.6653 185.042C89.624 185.042 72.0084 186.881 66.5039 182.405C60.9994 177.929 67.43 123.984 72.0989 109.091C76.7678 94.1992 87.1357 94.7476 90.1311 96.5873Z" fill="white"/>
<path d="M144.524 180.738C144.401 181.338 144.255 181.892 144.087 182.396C143.639 183.758 143.039 184.733 142.322 185.041C142.322 185.041 141.689 183.954 141.078 182.117C140.899 181.584 140.725 180.99 140.568 180.34C139.823 177.292 139.476 173.045 141.179 168.484C141.358 167.996 141.566 167.503 141.795 167.01C141.958 166.657 142.131 166.31 142.322 165.956C142.642 166.248 142.927 166.601 143.179 167.01C143.454 167.447 143.7 167.94 143.908 168.484C145.225 171.863 145.303 177.052 144.524 180.738" fill="#E3E3E3"/>
<path d="M133.085 182.485C132.989 182.485 132.899 182.424 132.866 182.328C132.858 182.303 132.016 179.819 131.693 176.57C131.394 173.56 131.49 169.254 133.647 165.836C133.715 165.727 133.859 165.695 133.967 165.763C134.075 165.832 134.107 165.975 134.039 166.083C130.037 172.426 133.272 182.081 133.305 182.177C133.347 182.299 133.282 182.43 133.161 182.472C133.136 182.481 133.11 182.485 133.085 182.485Z" fill="#B8B8B8"/>
<path d="M142.718 166.191H133.843C133.748 166.191 133.663 166.133 133.628 166.046C133.613 166.011 132.161 162.543 126.613 161.774C120.924 160.985 89.4805 159.05 89.1636 159.031C89.1015 159.027 89.0435 158.998 89.0026 158.951C88.9618 158.904 88.9414 158.842 88.9465 158.78L92.9204 108.751C92.9306 108.623 93.0401 108.529 93.17 108.538C93.2976 108.548 93.3932 108.66 93.383 108.788L89.4276 158.582C92.3469 158.762 121.232 160.559 126.677 161.314C131.916 162.041 133.651 165.019 133.993 165.727H142.718C142.846 165.727 142.95 165.831 142.95 165.959C142.95 166.088 142.846 166.191 142.718 166.191" fill="#B8B8B8"/>
<path d="M210.626 103.699C209.915 103.654 209.203 103.542 208.491 103.368C204.507 102.404 200.669 99.6416 198.518 97.8878C197.414 96.9798 196.758 96.3414 196.758 96.3414C196.758 96.3414 197.453 96.3748 198.556 96.5599C201.112 96.9969 205.857 98.2464 209.113 101.737C209.668 102.326 210.178 102.976 210.626 103.699" fill="#373C80"/>
<path d="M212.324 93.3437L209.113 101.737L208.491 103.368C204.507 102.404 200.669 99.6416 198.518 97.8878C198.534 97.5403 198.546 97.0809 198.556 96.5599C198.608 93.9431 198.629 89.6059 198.221 87.9366C197.626 85.471 195.845 81.6103 196.567 80.6411C197.296 79.677 201.918 83.5938 202.972 86.4458L212.324 93.3437" fill="#FAB990"/>
<path d="M207.09 85.5021L204.466 88.1263L189.759 73.4203L192.383 70.7961L207.09 85.5021Z" fill="#377A9C"/>
<path d="M198.347 81.3727C199.248 80.5673 199.841 79.6718 200.294 78.7059L192.383 70.7961L189.759 73.4203L198.004 81.665C198.127 81.5625 198.245 81.4646 198.347 81.3727" fill="#181F2A"/>
<path d="M180.395 79.4612C185.374 84.4401 193.446 84.4401 198.424 79.4612C203.403 74.4828 203.403 66.4107 198.424 61.4323C193.446 56.4535 185.374 56.4535 180.395 61.4323C175.416 66.4107 175.416 74.4828 180.395 79.4612Z" fill="#FABC09"/>
<path d="M187.088 70.3016C188.126 71.3385 188.468 72.6775 187.853 73.2918C187.238 73.9066 185.899 73.5642 184.863 72.5272C183.826 71.4902 183.484 70.1517 184.098 69.5374C184.713 68.9226 186.052 69.265 187.088 70.3016" fill="#181F2A"/>
<path d="M189.265 68.1251C190.302 69.162 191.641 69.5044 192.255 68.8897C192.87 68.2749 192.528 66.9364 191.491 65.8994C190.454 64.8624 189.115 64.5205 188.5 65.1348C187.886 65.7495 188.228 67.0881 189.265 68.1251Z" fill="#181F2A"/>
<path d="M196.351 68.1213C195.249 74.3431 193.148 76.2957 187.085 77.3882C189.665 78.5541 192.431 80.5567 195.911 77.3882C199.043 73.7711 197.517 70.7024 196.351 68.1213Z" fill="white"/>
<path d="M210.627 81.3356C207.518 80.9756 202.024 86.6991 202.06 88.0794C202.097 89.4602 205.237 88.3133 205.237 88.3133C205.237 88.3133 203.461 91.021 204.273 91.8413C205.085 92.6611 206.496 91.453 206.496 91.453C206.496 91.453 204.332 94.2994 204.981 95.2436C205.629 96.1878 208.222 94.5156 208.222 94.5156C208.222 94.5156 206.985 97.1343 207.911 97.6669C208.838 98.2 215.901 92.6189 215.337 91.6919C214.773 90.7644 213.133 90.6777 213.133 90.6777C213.133 90.6777 215.727 87.5473 214.808 86.5567C213.89 85.5661 212.495 86.6852 212.495 86.6852C212.495 86.6852 214.009 84.4076 213.269 83.443C212.529 82.4784 210.976 83.6606 210.976 83.6606C210.976 83.6606 211.696 81.4591 210.627 81.3356" fill="#FAB990"/>
<path d="M208.046 97.9249C207.947 97.9249 207.863 97.9068 207.796 97.8683C207.009 97.4154 207.411 95.9442 207.74 95.0668C206.868 95.5363 205.346 96.1864 204.789 95.3749C204.293 94.652 205.056 93.1891 205.686 92.2083C205.184 92.4083 204.578 92.4783 204.108 92.0042C203.406 91.2957 204.213 89.6082 204.717 88.723C203.981 88.9317 202.78 89.1776 202.19 88.7768C201.962 88.6209 201.836 88.3824 201.828 88.0859C201.825 87.9579 201.926 87.8512 202.054 87.8474C202.056 87.8474 202.059 87.8474 202.06 87.8474C202.186 87.8474 202.289 87.9477 202.292 88.0734C202.297 88.2223 202.345 88.3207 202.451 88.3931C202.932 88.7197 204.366 88.3843 205.157 88.0952C205.252 88.0609 205.356 88.0906 205.419 88.169C205.481 88.2474 205.486 88.3569 205.431 88.4404C204.784 89.4268 203.943 91.1783 204.438 91.678C205.09 92.3377 206.333 91.2878 206.345 91.2766C206.436 91.1996 206.57 91.2038 206.655 91.2845C206.742 91.3657 206.752 91.4989 206.681 91.5935C205.883 92.6426 204.769 94.5254 205.172 95.1123C205.564 95.6844 207.311 94.8265 208.097 94.3207C208.184 94.2651 208.298 94.273 208.375 94.3412C208.453 94.4094 208.477 94.5212 208.432 94.6149C208.059 95.4064 207.468 97.1445 208.027 97.466C208.352 97.6061 210.44 96.4429 212.858 94.3681C214.825 92.6802 215.17 91.9346 215.136 91.807C215.07 91.697 215.105 91.5573 215.215 91.4905C215.325 91.4242 215.469 91.4622 215.535 91.5713C215.682 91.8135 215.697 92.2496 214.49 93.4856C213.112 94.897 209.327 97.9249 208.046 97.9249" fill="white"/>
<path d="M164.819 172.132C164.819 172.132 166.876 174.07 162.606 175.79C162.606 175.79 164.097 177.774 160.594 178.99C160.594 178.99 162.101 182.015 156.538 182.015C152.873 182.015 148.923 181.254 144.524 180.738C143.824 180.654 143.112 180.582 142.389 180.514C141.639 180.441 141.022 180.385 140.568 180.34C139.823 177.292 139.476 173.045 141.179 168.484H145.09C145.09 168.484 147.942 166.27 150.447 165.48C150.447 165.48 156.812 159.132 156.812 160.913C156.812 162.83 154.605 168.461 154.605 168.461C154.605 168.461 162.443 168.461 165.436 168.461C168.428 168.461 167.56 170.663 164.819 172.132" fill="#FAB990"/>
<path d="M128.65 81.3435C132.715 80.648 136.231 77.4132 137.263 73.4203C137.592 72.1467 137.502 70.6096 136.704 69.5643C138.87 69.5234 140.944 68.5705 142.646 67.2305C141.069 67.0704 139.777 65.833 139.057 64.4212C138.337 63.0089 138.075 61.417 137.72 59.872C137.365 58.3269 136.88 56.749 135.82 55.5705C134.709 54.3349 133.002 53.6617 131.347 53.806C129.692 53.9503 128.127 54.9084 127.247 56.3175C126.713 51.8699 124.35 47.8932 120.136 46.3746C115.922 44.8565 110.891 45.9125 107.644 48.997C106.518 50.0664 105.607 51.3405 104.547 52.4749C103.486 53.6088 102.216 54.6314 100.704 54.985C99.1915 55.3385 97.407 54.8699 96.5775 53.5569C95.914 54.9409 96.0142 56.5346 96.5571 57.9706C97.0994 59.4066 98.2487 60.6018 99.6619 61.2008C97.2498 61.0787 95.019 63.6603 94.5383 66.027C94.0577 68.3937 94.929 70.8615 96.2805 72.8631C97.6321 74.8647 99.4388 76.5066 101.105 78.254C102.711 79.9372 104.198 81.7328 105.552 83.6235C106.674 85.1894 107.841 86.9274 109.672 87.5268C110.849 87.9124 112.129 87.7579 113.349 87.5417C119.16 86.5117 122.833 82.3397 128.65 81.3435" fill="#181F2A"/>
<path d="M109.006 97.0874L106.333 81.8868C106.333 81.8868 99.5417 84.216 99.0119 78.6683C98.5405 73.7252 103.919 73.3526 106.502 75.6775C106.502 75.6775 101.866 58.4142 116.804 57.0543C131.741 55.6944 131.869 76.1517 131.922 81.1027C132.016 89.8221 125.755 94.002 121.231 94.4321L121.154 97.6618C121.154 97.6618 121.509 102.341 117.113 102.514C111.253 102.744 109.006 97.0874 109.006 97.0874" fill="#FAB990"/>
<path d="M122.28 82.1309C122.311 82.1346 122.342 82.1346 122.373 82.1313C123.019 82.0515 123.586 81.7193 123.973 81.1969C124.36 80.675 124.509 80.0342 124.397 79.3953L123.732 75.6228C123.697 75.4228 123.504 75.2883 123.305 75.324C123.104 75.3588 122.971 75.5499 123.006 75.7504L123.672 79.5224C123.748 79.9614 123.645 80.4012 123.38 80.7594C123.115 81.1171 122.726 81.3449 122.283 81.3992C122.08 81.4238 121.937 81.6085 121.962 81.8103C121.983 81.9801 122.118 82.1091 122.28 82.1309" fill="#181F2A"/>
<path d="M128.759 73.5256C129.939 72.4028 124.372 69.4167 124.63 72.3012C124.703 73.1192 128.064 74.1868 128.759 73.5256Z" fill="#181F2A"/>
<path d="M116.29 73.5256C115.109 72.4028 120.677 69.4167 120.418 72.3012C120.345 73.1192 116.985 74.1868 116.29 73.5256Z" fill="#181F2A"/>
<path d="M117.454 77.043C117.328 77.9204 117.938 78.7337 118.816 78.859C119.693 78.9838 120.506 78.3741 120.631 77.4968C120.757 76.6194 120.147 75.8065 119.269 75.6813C118.392 75.556 117.579 76.1656 117.454 77.043" fill="#181F2A"/>
<path d="M125.349 76.9609C125.224 77.8383 125.833 78.6511 126.711 78.7764C127.589 78.9017 128.402 78.2916 128.527 77.4142C128.652 76.5364 128.042 75.7235 127.165 75.5982C126.287 75.4734 125.474 76.0831 125.349 76.9609Z" fill="#181F2A"/>
<path d="M105.206 79.5452C105.231 79.5485 105.257 79.5489 105.285 79.5471C105.488 79.5299 105.638 79.3513 105.621 79.1485C105.538 78.163 104.956 77.2398 104.103 76.7377C103.249 76.2357 102.16 76.1768 101.258 76.5832C101.073 76.6672 100.99 76.8858 101.073 77.0709C101.158 77.256 101.376 77.3372 101.561 77.2555C102.249 76.9442 103.079 76.9897 103.73 77.372C104.38 77.7552 104.823 78.4591 104.887 79.2112C104.902 79.3861 105.037 79.5229 105.206 79.5452Z" fill="#181F2A"/>
<path d="M131.73 75.2971C131.73 75.2971 127.755 70.5386 126.324 65.0916C126.324 65.0916 122.808 71.512 110.876 76.084C110.876 76.084 111.656 82.0826 110.643 82.1077C109.63 82.1332 108.227 78.8084 106.502 75.6776C104.778 72.5462 102.338 69.7439 102.338 69.7439L109.739 56.9847L114.398 55.3339L120.038 55.0235L125.074 57.1438L129.081 59.7054L132.273 65.6493L133.122 70.4737L131.73 75.2971" fill="#181F2A"/>
<path d="M117.094 82.8208C116.255 83.9882 114.536 83.9455 113.756 82.7373C113.323 82.066 113.346 81.1584 113.812 80.5098C114.65 79.3415 116.37 79.3842 117.15 80.5933C117.583 81.2647 117.56 82.1722 117.094 82.8208Z" fill="#F7977D"/>
<path d="M130.564 83.2634C129.725 84.4312 128.007 84.3886 127.227 83.1804C126.794 82.509 126.816 81.6015 127.282 80.9529C128.121 79.7841 129.841 79.8273 130.62 81.0364C131.053 81.7077 131.03 82.6153 130.564 83.2634Z" fill="#F7977D"/>
<path d="M125.434 99.6439L124.29 93.635C124.29 93.635 122.887 94.5537 118.463 94.4748C115.818 94.427 113.512 92.4176 113.512 92.4176C113.512 92.4176 107.316 92.9048 106.286 93.2736C105.254 93.6425 105.452 99.3446 105.452 99.3446C105.452 99.3446 111.923 103.137 117.73 103.835C123.537 104.535 125.434 99.6439 125.434 99.6439" fill="#D0D0D0"/>
<path d="M124.538 93.7171L124.576 95.3514C120.499 96.3921 115.084 94.9446 113.44 92.5619C113.44 92.5619 116.174 94.1362 118.897 94.1812C123.453 94.2564 124.538 93.7171 124.538 93.7171Z" fill="#757575"/>
<path d="M115.694 102.478C112.882 102.478 110.07 101.966 107.438 100.939C107.318 100.892 107.259 100.758 107.306 100.639C107.353 100.519 107.487 100.46 107.606 100.507C112.936 102.585 119.018 102.511 124.295 100.304C124.413 100.255 124.549 100.311 124.598 100.429C124.648 100.547 124.592 100.683 124.474 100.732C121.694 101.895 118.694 102.478 115.694 102.478" fill="#4A4A4A"/>
<path d="M219.803 133.444H154.605V185.041H219.803V133.444Z" fill="#FAF1D2"/>
<path d="M219.803 133.444H242.252V185.041H219.803V133.444Z" fill="#C7BB93"/>
<path d="M233.31 167.579V133.444H228.745V167.579L230.193 166.862L230.852 167.794L231.72 166.832L232.318 167.939L233.31 167.579" fill="#C27A17"/>
<path d="M190.79 155.157H212.97C213.899 155.157 214.651 154.404 214.651 153.476V140.483C214.651 139.555 213.899 138.802 212.97 138.802H190.79C189.862 138.802 189.109 139.555 189.109 140.483V153.476C189.109 154.404 189.862 155.157 190.79 155.157Z" fill="#C7BB93"/>
<path d="M212.41 143.873V141.043H191.351V143.873H212.41Z" fill="#F3971A"/>
<path d="M182.345 166.353C182.345 172.245 177.568 177.022 171.676 177.022C165.783 177.022 161.007 172.245 161.007 166.353C161.007 160.46 165.783 155.684 171.676 155.684C177.568 155.684 182.345 160.46 182.345 166.353Z" fill="#DB283E"/>
<path d="M242.252 169.57C239.311 169.948 237.036 172.455 237.036 175.499C237.036 178.543 239.311 181.051 242.252 181.428V169.57Z" fill="#C27A17"/>
<path d="M235.015 130.228C235.764 130.228 236.37 129.62 236.37 128.872V118.322C236.37 117.573 235.764 116.967 235.015 116.967L213.996 114.42L197.07 121.218L193.803 121.464C189.918 121.757 186.889 124.946 186.796 128.84C186.778 129.601 187.39 130.228 188.151 130.228H188.3H235.015" fill="#377A9C"/>
<path d="M197.07 121.218L193.803 121.464C189.918 121.756 186.889 124.946 186.796 128.84C186.778 129.601 187.39 130.228 188.151 130.228H201.01C201.01 130.228 201.638 124.385 197.07 121.218" fill="#EDEDED"/>
<path d="M213.996 114.42L197.07 121.218C197.936 121.819 198.614 122.516 199.147 123.251C202.998 122.158 213.443 119.15 215.659 118.057C216.99 117.4 217.743 116.093 218.166 114.925L213.996 114.42" fill="#FF711E"/>
<path d="M207.087 120.935C207.087 120.935 209.129 128.101 216.195 128.101C223.26 128.101 235.015 116.967 235.015 116.967L233.191 116.745C233.191 116.745 223.876 125.138 217.91 124.465C214.44 124.073 212.837 119.125 212.837 119.125L207.087 120.935" fill="white"/>
<path d="M234.696 122.117C231.391 122.117 228.712 124.797 228.712 128.101C228.712 128.851 228.856 129.566 229.108 130.228H235.015C235.764 130.228 236.37 129.62 236.37 128.872V122.359C235.839 122.204 235.278 122.117 234.696 122.117Z" fill="#FF711E"/>
<path d="M213.996 114.42L214.661 107.852C214.735 107.122 215.377 106.583 216.11 106.637L235.672 108.084C236.42 108.139 236.98 108.79 236.924 109.537L236.464 115.712C236.411 116.419 235.822 116.967 235.112 116.967H235.015L213.996 114.42" fill="#28628B"/>
<path d="M236.817 110.963L214.529 109.207L214.565 108.745L236.853 110.501L236.817 110.963Z" fill="#377A9C"/>
<path d="M236.514 113.105L214.415 110.812L214.463 110.351L236.562 112.643L236.514 113.105Z" fill="#377A9C"/>
<path d="M236.471 115.435L214.187 112.463L214.248 112.002L236.533 114.975L236.471 115.435" fill="#377A9C"/>
<path d="M212.06 117.336C211.813 117.336 211.575 117.205 211.448 116.973L210.524 115.278C210.34 114.94 210.465 114.517 210.802 114.334C211.139 114.151 211.562 114.274 211.747 114.612L212.671 116.307C212.855 116.645 212.73 117.067 212.392 117.252C212.287 117.309 212.173 117.336 212.06 117.336" fill="white"/>
<path d="M209.177 118.523C208.931 118.523 208.692 118.391 208.565 118.16L207.641 116.465C207.458 116.127 207.582 115.704 207.92 115.52C208.256 115.337 208.68 115.461 208.864 115.798L209.788 117.494C209.972 117.831 209.847 118.254 209.51 118.438C209.404 118.496 209.29 118.523 209.177 118.523" fill="white"/>
<path d="M206.198 119.531C205.951 119.531 205.712 119.401 205.586 119.169L204.758 117.651C204.575 117.314 204.699 116.891 205.037 116.707C205.373 116.524 205.797 116.647 205.981 116.985L206.808 118.502C206.992 118.84 206.868 119.262 206.53 119.447C206.424 119.504 206.31 119.531 206.198 119.531" fill="white"/>
<path d="M203.155 120.425C202.909 120.425 202.67 120.294 202.543 120.062L201.876 118.838C201.692 118.5 201.817 118.077 202.154 117.894C202.491 117.711 202.914 117.834 203.098 118.172L203.766 119.396C203.95 119.733 203.825 120.156 203.488 120.34C203.382 120.398 203.268 120.425 203.155 120.425" fill="white"/>
<path d="M213.974 107.761L228.719 108.989C229.032 109.015 229.262 109.294 229.229 109.606L228.803 113.64C228.77 113.946 228.498 114.168 228.192 114.139L213.448 112.726C213.137 112.697 212.91 112.418 212.944 112.107L213.37 108.257C213.403 107.956 213.671 107.735 213.974 107.761" fill="#377A9C"/>
<path d="M236.37 133.444H186.763V130.174H236.37V133.444Z" fill="#CECECE"/>
<path d="M175.519 101.905C175.519 106.69 176.811 107.926 179.949 107.926C176.811 107.926 175.519 109.163 175.519 113.948C175.519 109.163 174.226 107.926 171.089 107.926C174.226 107.926 175.519 106.69 175.519 101.905Z" fill="#FCFCFE"/>
<path d="M272.814 185.472H72.0312V183.732H272.814V185.472Z" fill="#181F2A"/>
<path d="M69.4459 62.1547L67.8592 63.1819L66.2724 62.1561C62.305 59.5913 62.305 57.7591 62.305 57.0701C62.305 55.4559 63.612 54.1475 65.2275 54.1475C66.3837 54.1475 67.3827 54.8198 67.8592 55.7942C68.3329 54.8198 69.3318 54.1475 70.4876 54.1475C72.1031 54.1475 73.4106 55.4559 73.4106 57.0701C73.4106 57.7591 73.4106 59.5904 69.4459 62.1547Z" fill="white"/>
<path d="M272.722 184.766H220.947V179.377H272.722C274.21 179.377 275.416 180.584 275.416 182.072C275.416 183.56 274.21 184.766 272.722 184.766Z" fill="#F3971A"/>
<path d="M245.327 183.637H220.947V180.507H245.327C246.192 180.507 246.892 181.208 246.892 182.072C246.892 182.936 246.192 183.637 245.327 183.637Z" fill="#FCFCFE"/>
<path d="M269.957 179.377H218.181V173.988H269.957C271.445 173.988 272.651 175.195 272.651 176.683C272.651 178.171 271.445 179.377 269.957 179.377" fill="#F03B3F"/>
<path d="M242.562 178.248H218.181V175.119H242.562C243.426 175.119 244.127 175.819 244.127 176.683C244.127 177.547 243.426 178.248 242.562 178.248" fill="#FCFCFE"/>
<path fill-rule="evenodd" clip-rule="evenodd" d="M118.54 82.785C118.75 82.7185 118.975 82.8354 119.042 83.046C119.292 83.8384 119.586 84.3639 119.903 84.7108C120.215 85.0509 120.563 85.235 120.957 85.3238C121.362 85.4148 121.827 85.4078 122.37 85.3418C122.792 85.2904 123.238 85.2066 123.722 85.1156C123.863 85.0891 124.008 85.062 124.156 85.0349C124.373 84.9951 124.581 85.139 124.621 85.3563C124.661 85.5736 124.517 85.782 124.3 85.8218C124.161 85.8471 124.023 85.8731 123.886 85.8989C123.397 85.9908 122.917 86.0811 122.466 86.1359C121.886 86.2065 121.316 86.2245 120.782 86.1043C120.237 85.9818 119.741 85.7186 119.313 85.251C118.891 84.7901 118.55 84.1475 118.279 83.2869C118.212 83.0763 118.329 82.8516 118.54 82.785Z" fill="#181F2A"/>
</g>
<defs>
<clipPath id="clip0_812_566">
<rect width="301" height="223" fill="white"/>
</clipPath>
</defs>
</svg>
