<svg width="100" height="106" viewBox="0 0 100 106" fill="none" xmlns="http://www.w3.org/2000/svg">
<path d="M21.1524 54.3312C18.8985 55.9221 16.6445 57.7784 14.6552 59.7678C13.462 60.9609 13.462 63.0826 14.6552 64.2757C15.3183 64.9388 16.1137 65.2043 16.9091 65.2043C17.7045 65.2043 18.5 64.9388 19.1631 64.2757C20.8871 62.5517 22.7433 60.9609 24.8641 59.5023C26.3227 58.4415 26.5881 56.4529 25.6595 55.1268C24.5996 53.6682 22.6101 53.2705 21.1525 54.3314L21.1524 54.3312Z" fill="url(#paint0_linear_835_649)"/>
<path d="M98.5868 47.0386C83.3381 31.7899 62.3889 24.3647 41.3066 26.6188C40.6434 26.7511 39.9803 26.7511 39.4503 26.8843L26.1911 1.6916C25.3956 0.100764 23.4061 -0.430104 21.9476 0.365288C20.3568 1.1607 19.8259 3.15021 20.6213 4.60874L32.952 28.0779C21.0191 30.8628 10.2781 36.9617 1.39484 45.7128C0.201719 46.9059 0.201719 49.0276 1.39484 50.2207C2.58797 51.4138 4.70967 51.4138 5.90277 50.2207C14.2564 41.8671 24.5986 36.2982 36.0014 33.912L42.3656 45.9782C38.5209 46.5082 34.6752 47.569 31.0947 49.0276C29.5039 49.6908 28.7085 51.5471 29.3707 53.1378C30.0339 54.7286 31.8902 55.524 33.4809 54.8617C37.0611 53.4032 40.7737 52.4755 44.7517 52.0768C45.0172 52.0768 45.4149 52.0768 45.6803 51.9446L52.1776 64.4085C50.3214 64.2763 48.3329 64.2763 46.4766 64.5408C39.1838 65.3362 32.6874 68.3855 27.6484 73.5566C26.4553 74.7498 26.4553 76.8715 27.6484 78.0646C28.8415 79.2577 30.9632 79.2577 32.1563 78.0646C36.2665 73.9544 41.4376 71.5673 47.2719 70.905C50.189 70.6396 53.1063 70.7728 56.0233 71.435L73.2606 104.185C73.7906 105.246 74.9846 105.909 76.0455 105.909C76.5755 105.909 77.1064 105.777 77.5041 105.512C79.0949 104.716 79.6258 102.727 78.8304 101.268L65.0412 75.5452C66.3675 76.4739 67.5607 77.5338 68.7538 78.7277C69.417 79.3909 70.2124 79.6563 71.0078 79.6563C71.8032 79.6563 72.5986 79.3909 73.2618 78.7277C74.4549 77.5346 74.4549 75.4129 73.2618 74.2198C69.417 70.3751 64.9082 67.5901 60.0025 65.9993L52.5775 51.9447C63.1852 52.7401 73.2618 57.2479 81.085 65.0716C81.7481 65.7347 82.5436 66.0002 83.3389 66.0002C84.1343 66.0002 84.9298 65.7347 85.5929 65.0716C86.786 63.8785 86.786 61.7568 85.5929 60.5637C75.7808 50.7516 62.7869 45.316 49.2624 45.4481L42.6328 32.852C61.5931 30.9957 80.4218 37.7577 94.2114 51.5478C94.8746 52.211 95.67 52.4764 96.4654 52.4764C97.2608 52.4764 98.0562 52.211 98.7194 51.5478C99.7811 50.3529 99.7811 48.3635 98.588 47.038L98.5868 47.0386Z" fill="url(#paint1_linear_835_649)"/>
<defs>
<linearGradient id="paint0_linear_835_649" x1="24.0179" y1="59.4681" x2="14.6954" y2="58.6601" gradientUnits="userSpaceOnUse">
<stop stop-color="#EB3349"/>
<stop offset="1" stop-color="#F45C43"/>
</linearGradient>
<linearGradient id="paint1_linear_835_649" x1="82.1258" y1="52.9547" x2="7.79899" y2="47.4016" gradientUnits="userSpaceOnUse">
<stop stop-color="#EB3349"/>
<stop offset="1" stop-color="#F45C43"/>
</linearGradient>
</defs>
</svg>
